<?xml version="1.0" encoding="utf-8"?>
<!-- Generator: Adobe Illustrator 25.0.0, SVG Export Plug-In . SVG Version: 6.00 Build 0)  -->
<svg version="1.1" id="Capa_1" xmlns="http://www.w3.org/2000/svg" xmlns:xlink="http://www.w3.org/1999/xlink" x="0px" y="0px"
	 viewBox="0 0 512 512" style="enable-background:new 0 0 512 512;" xml:space="preserve">
<style type="text/css">
	.st0{fill:none;stroke:#949CDF;stroke-width:5;stroke-miterlimit:10;}
</style>
<path class="st0" d="M437,75C388.7,26.6,324.4,0,256,0S123.3,26.6,75,75S0,187.6,0,256s26.6,132.7,75,181s112.6,75,181,75
	s132.7-26.6,181-75s75-112.6,75-181S485.4,123.3,437,75z M137.8,196.2c0,8.3-6.7,15-15,15s-15-6.7-15-15c0-33.6,27.4-61,61-61
	s61,27.4,61,61c0,8.3-6.7,15-15,15s-15-6.7-15-15c0-17.1-13.9-31-31-31S137.8,179.1,137.8,196.2z M258.7,376.8
	c-57.1,0-103.5-46.4-103.5-103.5c0-8.3,6.7-15,15-15s15,6.7,15,15c0,40.5,33,73.5,73.5,73.5s73.5-33,73.5-73.5c0-8.3,6.7-15,15-15
	s15,6.7,15,15C362.2,330.3,315.8,376.8,258.7,376.8z M393.9,211.2c-8.3,0-15-6.7-15-15c0-17.1-13.9-31-31-31s-31,13.9-31,31
	c0,8.3-6.7,15-15,15s-15-6.7-15-15c0-33.6,27.4-61,61-61s61,27.4,61,61C408.9,204.5,402.2,211.2,393.9,211.2z"/>
</svg>
